<?xml version="1.0" encoding="UTF-8" standalone="no"?>
<svg
   width="660pt"
   height="660pt"
   viewBox="0 0 660 660"
   version="1.1"
   id="svg19"
   xmlns="http://www.w3.org/2000/svg"
   xmlns:svg="http://www.w3.org/2000/svg">
  <defs
     id="defs19" />
  <path
     fill-rule="evenodd"
     fill="rgb(95.625305%, 91.209412%, 89.46991%)"
     fill-opacity="1"
     d="M 342.925781 529.1875 C 459.890625 529.1875 555.289062 482.042969 555.289062 424.238281 C 555.289062 366.433594 459.890625 319.289062 342.925781 319.289062 C 225.960938 319.289062 130.566406 366.433594 130.566406 424.238281 C 130.566406 482.042969 225.960938 529.1875 342.925781 529.1875 "
     id="path1" />
  <path
     fill-rule="evenodd"
     fill="rgb(60.575867%, 76.919556%, 12.92572%)"
     fill-opacity="1"
     d="M 441.882812 132.730469 C 381.597656 154.207031 333.898438 196.710938 313.199219 255.046875 C 292.503906 313.386719 302.753906 376.449219 336.019531 431.117188 C 396.300781 409.636719 444.003906 367.136719 464.703125 308.796875 C 485.402344 250.460938 475.152344 187.398438 441.882812 132.730469 "
     id="path2" />
  <path
     fill-rule="evenodd"
     fill="rgb(68.000793%, 85.36377%, 10.037231%)"
     fill-opacity="1"
     d="M 441.882812 132.730469 C 381.597656 154.207031 333.898438 196.710938 313.199219 255.046875 C 292.5 313.386719 302.753906 376.449219 336.019531 431.117188 Z M 441.882812 132.730469 "
     id="path3" />
  <path
     fill-rule="evenodd"
     fill="rgb(60.575867%, 76.919556%, 12.92572%)"
     fill-opacity="1"
     d="M 203.105469 25.21875 C 149.207031 88.96875 123.28125 168.171875 138.191406 247.53125 C 153.101562 326.886719 206.007812 391.28125 279.367188 431.117188 C 333.265625 367.371094 359.191406 288.167969 344.28125 208.808594 C 329.371094 129.449219 276.464844 65.058594 203.105469 25.21875 "
     id="path4" />
  <path
     fill-rule="evenodd"
     fill="rgb(68.000793%, 85.36377%, 10.037231%)"
     fill-opacity="1"
     d="M 203.105469 25.21875 C 149.207031 88.96875 123.28125 168.171875 138.191406 247.53125 C 153.101562 326.886719 206.007812 391.28125 279.367188 431.117188 Z M 203.105469 25.21875 "
     id="path5" />
  <path
     fill-rule="evenodd"
     fill="rgb(53.855896%, 33.166504%, 14.881897%)"
     fill-opacity="1"
     d="M 460.40625 282.363281 C 417.566406 264.359375 373.886719 258.144531 335.71875 262.378906 C 313.320312 264.863281 295.355469 278.289062 286.628906 299.0625 C 277.898438 319.835938 280.878906 342.066406 294.777344 359.800781 C 318.460938 390.027344 353.472656 416.878906 396.3125 434.886719 C 471.121094 466.320312 548.503906 461.820312 594.582031 428.476562 C 586.152344 372.226562 535.214844 313.800781 460.40625 282.363281 "
     id="path6" />
  <path
     fill-rule="evenodd"
     fill="rgb(45.735168%, 25.079346%, 9.959412%)"
     fill-opacity="1"
     d="M 286.628906 299.0625 C 277.898438 319.835938 280.878906 342.066406 294.777344 359.800781 C 318.460938 390.027344 353.472656 416.878906 396.3125 434.882812 C 471.121094 466.320312 548.503906 461.820312 594.582031 428.476562 C 558.859375 437.167969 488.757812 424.355469 413.949219 392.917969 C 371.109375 374.914062 333.710938 353.738281 306.042969 332.996094 C 289.804688 320.820312 282.699219 308.40625 286.628906 299.0625 "
     id="path7" />
  <path
     fill-rule="evenodd"
     fill="rgb(35.612488%, 20.545959%, 9.364319%)"
     fill-opacity="1"
     d="M 454.058594 324.703125 C 442.660156 318.386719 430.90625 313.34375 418.726562 309.855469 C 431.363281 309.347656 443.0625 314.785156 454.058594 324.703125 M 366.164062 391.351562 C 343.300781 383.265625 323.445312 370.070312 308.226562 349.003906 C 327.539062 363.121094 346.851562 377.238281 366.164062 391.351562 M 501.929688 399.332031 C 473.425781 386.535156 444.273438 377.359375 414.105469 373.742188 C 441.8125 386.714844 471.355469 394.484375 501.929688 399.332031 M 437.773438 435.445312 C 463.460938 444.859375 489.1875 444.980469 514.941406 439.871094 C 489.523438 436.785156 463.867188 434.972656 437.773438 435.445312 M 566.914062 384.757812 C 544.761719 364.304688 521.824219 346.480469 498.277344 330.652344 C 527.542969 340.257812 550.582031 358.089844 566.914062 384.757812 M 510.210938 370.808594 C 474.28125 347 436.027344 330.367188 394.386719 324.195312 C 434.507812 337.117188 472.902344 353.027344 510.210938 370.808594 M 317.148438 316.019531 C 333.667969 327.640625 352.957031 335.441406 374.050781 340.753906 C 356.402344 330.5625 337.691406 321.9375 317.148438 316.019531 M 351.507812 283.230469 C 381.390625 276.273438 411.253906 280.964844 441.097656 292.371094 C 411.484375 287.535156 381.660156 284.179688 351.507812 283.230469 "
     id="path8" />
  <path
     fill-rule="evenodd"
     fill="rgb(63.870239%, 42.796326%, 21.77124%)"
     fill-opacity="1"
     d="M 244.683594 307.902344 C 291.152344 307.902344 333.835938 319.09375 367.378906 337.785156 C 387.0625 348.75 398.425781 368.089844 398.425781 390.621094 C 398.425781 413.15625 387.0625 432.492188 367.378906 443.460938 C 333.835938 462.152344 291.152344 473.34375 244.683594 473.34375 C 163.539062 473.34375 93.945312 439.214844 64.378906 390.621094 C 93.945312 342.03125 163.539062 307.902344 244.683594 307.902344 "
     id="path9" />
  <path
     fill-rule="evenodd"
     fill="rgb(57.878113%, 36.721802%, 17.103577%)"
     fill-opacity="1"
     d="M 398.421875 390.625 C 398.421875 413.15625 387.0625 432.492188 367.378906 443.460938 C 333.835938 462.152344 291.152344 473.34375 244.683594 473.34375 C 163.539062 473.34375 93.945312 439.214844 64.378906 390.625 C 93.945312 412.472656 163.539062 427.820312 244.683594 427.820312 C 291.152344 427.820312 333.835938 422.789062 367.378906 414.382812 C 387.0625 409.453125 398.421875 400.757812 398.421875 390.625 "
     id="path10" />
  <path
     fill-rule="evenodd"
     fill="rgb(38.945007%, 23.01178%, 9.506226%)"
     fill-opacity="1"
     d="M 234.132812 349.394531 C 248.113281 344.511719 261.007812 344.03125 272.457031 349.394531 C 259.878906 347.890625 247.089844 347.988281 234.132812 349.394531 M 289.34375 444.890625 C 313.554688 446.292969 336.972656 441.820312 359.164062 428.296875 C 335.890625 433.828125 312.617188 439.359375 289.34375 444.890625 M 161.089844 399.648438 C 191.152344 407.023438 221.398438 411.308594 251.96875 410.082031 C 222.757812 401.730469 192.320312 398.898438 161.089844 399.648438 M 206.242188 457.796875 C 178.914062 456.523438 155.148438 446.667969 133.386719 431.984375 C 158.015625 438.988281 182.375 447.253906 206.242188 457.796875 M 106.824219 361.039062 C 132.21875 342.78125 160.359375 335.265625 191.0625 337.75 C 163.226562 343.214844 135.167969 350.765625 106.824219 361.039062 M 164.503906 370.144531 C 206.851562 362.121094 248.5625 361.597656 289.34375 372.039062 C 247.347656 368.414062 205.789062 368.207031 164.503906 370.144531 M 363.714844 394.429688 C 343.980469 398.746094 323.175781 398.464844 301.675781 395.1875 C 321.894531 392.628906 342.484375 391.929688 363.714844 394.429688 M 344.742188 350.890625 C 319.886719 332.898438 290.542969 325.65625 258.605469 324.609375 C 287.785156 331.621094 316.578125 340.085938 344.742188 350.890625 "
     id="path11" />
  <path
     fill-rule="evenodd"
     fill="rgb(73.513794%, 53.024292%, 30.94635%)"
     fill-opacity="1"
     d="M 455.742188 374.039062 C 515.128906 440.21875 410.960938 511.589844 376.542969 531.460938 C 342.128906 551.332031 284.671875 534.496094 248.207031 493.859375 C 211.746094 453.226562 210.085938 404.175781 244.503906 384.304688 C 278.917969 364.433594 396.363281 307.859375 455.742188 374.039062 "
     id="path12" />
  <path
     fill-rule="evenodd"
     fill="rgb(63.870239%, 42.796326%, 21.77124%)"
     fill-opacity="1"
     d="M 455.742188 374.039062 C 515.128906 440.21875 410.960938 511.589844 376.542969 531.460938 C 367.894531 536.453125 357.792969 539.125 346.933594 539.691406 L 336.832031 534.933594 L 371.449219 464.109375 C 393.914062 466.851562 416.390625 459.105469 432.394531 443.101562 C 448.394531 427.097656 456.144531 404.621094 453.40625 382.15625 L 451.929688 370.0625 C 453.222656 371.339844 454.5 372.652344 455.742188 374.039062 "
     id="path13" />
  <path
     fill-rule="evenodd"
     fill="rgb(98.403931%, 77.43988%, 53.742981%)"
     fill-opacity="1"
     d="M 372.839844 421.90625 C 409.300781 462.542969 410.957031 511.589844 376.542969 531.460938 C 342.125 551.332031 284.667969 534.496094 248.207031 493.859375 C 211.746094 453.222656 210.085938 404.175781 244.5 384.304688 C 278.917969 364.433594 336.375 381.269531 372.839844 421.90625 "
     id="path14" />
  <path
     fill-rule="evenodd"
     fill="rgb(97.393799%, 64.21814%, 28.440857%)"
     fill-opacity="1"
     d="M 356.824219 431.152344 C 387.636719 465.492188 391.886719 505.300781 366.316406 520.066406 C 304.003906 556.042969 242.101562 563.507812 181.828125 532.183594 C 163.933594 476.394531 192.414062 431.679688 254.726562 395.703125 C 280.300781 380.9375 326.011719 396.808594 356.824219 431.152344 "
     id="path15" />
  <path
     fill-rule="evenodd"
     fill="rgb(93.989563%, 55.163574%, 18.684387%)"
     fill-opacity="1"
     d="M 356.824219 431.152344 C 387.636719 465.492188 391.886719 505.300781 366.316406 520.066406 C 309.417969 552.914062 252.867188 561.988281 197.585938 539.476562 C 250.988281 541.445312 297.273438 526.277344 335.296875 500.34375 C 349.636719 490.5625 355.804688 473.429688 350.984375 456.753906 C 343.996094 432.582031 327.636719 411.695312 304.878906 399.242188 L 290.695312 391.480469 C 312.898438 395.675781 337.722656 409.863281 356.824219 431.152344 "
     id="path16" />
  <path
     fill-rule="evenodd"
     fill="rgb(97.88208%, 70.475769%, 39.344788%)"
     fill-opacity="1"
     d="M 247.273438 414.503906 C 275.648438 404.824219 295.652344 416.398438 291.957031 440.359375 C 288.261719 464.316406 262.261719 491.582031 233.882812 501.261719 C 205.511719 510.941406 185.503906 499.367188 189.199219 475.410156 C 192.898438 451.449219 218.898438 424.183594 247.273438 414.503906 "
     id="path17" />
  <path
     fill-rule="evenodd"
     fill="rgb(85.360718%, 49.317932%, 15.577698%)"
     fill-opacity="1"
     d="M 212.558594 516.667969 C 228.808594 504.746094 242.847656 489.226562 255.644531 471.6875 C 238.652344 484.558594 223.933594 499.261719 212.558594 516.667969 M 202.191406 479.257812 C 210.671875 450.371094 230.855469 425.75 259.203125 404.105469 C 237.289062 426.917969 218.0625 451.796875 202.191406 479.257812 M 262.441406 434.226562 C 269.324219 421.082031 278.820312 410.554688 292.398438 404.105469 C 281.242188 412.621094 271.4375 422.898438 262.441406 434.226562 M 358.976562 452.691406 C 342.960938 465.289062 325.003906 474.757812 306.175781 482.820312 C 322.449219 470.40625 339.679688 459.707031 358.976562 452.691406 M 370.3125 498.367188 C 339.683594 519.109375 306.355469 531.074219 270.542969 534.972656 C 303.800781 524.914062 337.054688 512.742188 370.3125 498.367188 M 287.390625 466.296875 C 299.804688 460.203125 311.042969 450.253906 320.429688 434.226562 C 306.890625 442.941406 295.964844 453.699219 287.390625 466.296875 "
     id="path18" />
  <path
     fill-rule="evenodd"
     fill="rgb(45.552063%, 28.092957%, 12.731934%)"
     fill-opacity="1"
     d="M 460.128906 421.273438 C 458.300781 445.949219 439.070312 466.605469 421.582031 475.371094 C 436.402344 459.207031 449.40625 441.320312 460.128906 421.273438 M 438.425781 380.78125 C 431.433594 396.847656 422.203125 411.46875 411.535156 425.160156 C 426.683594 415.800781 435.808594 401.152344 438.425781 380.78125 M 424.011719 359.402344 C 417.511719 370.417969 409.023438 378.945312 399.066406 385.636719 C 406.054688 374.710938 414.214844 365.714844 424.011719 359.402344 M 401.308594 353.730469 C 382.136719 361.738281 367.058594 373.421875 354.363281 387.257812 C 370.824219 376.757812 386.574219 365.667969 401.308594 353.730469 M 313.386719 366.203125 C 335.023438 354.601562 358.261719 348.867188 383.027344 348.710938 C 359.816406 354.542969 336.601562 360.371094 313.386719 366.203125 "
     id="path19" />
</svg>
