<?xml version="1.0" encoding="UTF-8" standalone="no"?>
<svg
   width="600pt"
   height="600pt"
   viewBox="0 0 600 600"
   version="1.1"
   id="svg15"
   xmlns="http://www.w3.org/2000/svg"
   xmlns:svg="http://www.w3.org/2000/svg">
  <defs
     id="defs15" />
  <path
     fill-rule="nonzero"
     fill="rgb(38.693237%, 76.795959%, 90.740967%)"
     fill-opacity="1"
     d="M 0.902344 600 L 600 600 L 600 0.855469 L 0.902344 0.855469 Z M 0.902344 600 "
     id="path1" />
  <path
     fill-rule="evenodd"
     fill="rgb(87.5%, 95.941162%, 98.454285%)"
     fill-opacity="1"
     d="M 574.261719 229.128906 L 537.570312 225.679688 C 537.695312 225.265625 537.816406 224.851562 537.925781 224.429688 C 541.117188 212.324219 536.699219 202.511719 528.050781 202.511719 C 524.285156 202.511719 520.339844 204.371094 516.820312 207.472656 C 514.457031 204.332031 511.132812 202.511719 507.050781 202.511719 C 500.394531 202.511719 493.203125 207.355469 487.492188 214.855469 C 486.984375 202.679688 481.007812 194.21875 471.476562 194.21875 C 461.695312 194.21875 450.953125 203.132812 444.039062 215.824219 C 440.988281 212.050781 436.839844 209.878906 431.796875 209.878906 C 426.703125 209.878906 421.355469 212.089844 416.273438 215.933594 C 413.46875 207.726562 407.414062 202.511719 399.109375 202.511719 C 394.140625 202.511719 388.988281 204.382812 384.121094 207.644531 C 381.089844 204.414062 376.824219 202.511719 371.664062 202.511719 C 359.742188 202.511719 347.203125 212.675781 342.148438 225.871094 L 304.617188 229.128906 Z M 574.261719 229.128906 "
     id="path2" />
  <path
     fill-rule="evenodd"
     fill="rgb(17.30957%, 29.777527%, 35.954285%)"
     fill-opacity="1"
     d="M 27.558594 300.453125 L 137.339844 234.425781 L 180.8125 199.796875 L 238.28125 218.445312 L 309.015625 150.429688 L 367.957031 196.113281 L 395.957031 180.640625 L 448.269531 230.003906 L 574.261719 300.453125 L 517.039062 478.984375 L 107.132812 476.832031 C 103.207031 474.214844 103.246094 472.792969 100.5 467.992188 Z M 27.558594 300.453125 "
     id="path3" />
  <path
     fill-rule="evenodd"
     fill="rgb(12.254333%, 21.011353%, 25.508118%)"
     fill-opacity="1"
     d="M 211.019531 254.320312 L 187.8125 256.160156 L 217.28125 346.050781 L 235.335938 270.160156 L 261.492188 272.003906 L 238.28125 218.445312 L 180.8125 199.796875 Z M 249.609375 461.910156 L 451.492188 434.652344 L 285.347656 393.757812 L 227.136719 367.242188 L 248.871094 458.964844 Z M 27.558594 335.917969 L 119.566406 279.921875 L 110.355469 306.171875 L 138.355469 306.171875 L 142.40625 397.808594 Z M 309.015625 150.429688 L 367.957031 196.113281 L 395.957031 180.640625 L 448.269531 230.003906 L 574.261719 300.453125 L 533.671875 427.09375 L 491.644531 444.113281 L 382.324219 341.628906 L 357.273438 367.242188 L 314.539062 279.738281 L 349.90625 288.582031 L 326.328125 218.445312 L 300.5 234.058594 Z M 309.015625 150.429688 "
     id="path4" />
  <path
     fill-rule="evenodd"
     fill="rgb(100%, 100%, 100%)"
     fill-opacity="1"
     d="M 600.101562 218.609375 L 600.101562 426.875 C 587.292969 451.085938 564.050781 467.902344 539.71875 467.902344 C 528.125 467.902344 517.820312 464.082031 509.523438 457.464844 C 500.324219 490.695312 472.148438 516.039062 442.332031 516.039062 C 415.269531 516.039062 395.21875 495.152344 391.613281 466.441406 C 386.644531 469.816406 381.019531 471.773438 375.261719 471.773438 C 359.261719 471.773438 348.339844 456.640625 350.871094 437.976562 C 353.40625 419.308594 368.429688 404.179688 384.429688 404.179688 C 392.140625 404.179688 398.667969 407.6875 403.082031 413.414062 C 412.777344 396.890625 427.4375 384.265625 443.78125 378.84375 C 452.371094 349.503906 477.417969 327.265625 503.90625 327.265625 C 505.585938 327.265625 507.234375 327.359375 508.851562 327.535156 C 513.746094 300.179688 536.085938 278.421875 559.832031 278.421875 C 560.96875 278.421875 562.089844 278.472656 563.191406 278.570312 L 563.207031 278.421875 C 566.644531 253.097656 581.171875 230.914062 600.101562 218.609375 M 0.902344 454.726562 L 0.902344 218.445312 C 16.597656 223.125 29.152344 237.277344 30.941406 254.007812 C 31.792969 261.957031 30.085938 269.324219 26.484375 275.371094 C 28.121094 275.132812 29.804688 275.007812 31.53125 275.007812 C 51.164062 275.007812 68.78125 290.921875 70.882812 310.554688 C 71.703125 318.226562 70.03125 325.332031 66.519531 331.136719 C 70.28125 330.160156 74.273438 329.636719 78.445312 329.636719 C 105.507812 329.636719 129.789062 351.570312 132.679688 378.632812 C 132.839844 380.105469 132.925781 381.5625 132.953125 383.003906 C 137.875 380.214844 143.664062 378.632812 149.996094 378.632812 C 165.105469 378.632812 179.070312 387.636719 186.28125 400.570312 C 190.492188 397.582031 195.734375 395.839844 201.570312 395.839844 C 217.441406 395.839844 231.679688 408.707031 233.378906 424.578125 C 235.074219 440.445312 223.585938 453.308594 207.714844 453.308594 C 198.285156 453.308594 189.429688 448.769531 183.441406 441.753906 C 177.425781 448.71875 168.425781 453.046875 157.953125 453.046875 C 145.683594 453.046875 134.171875 447.109375 126.414062 437.953125 C 124.140625 454.175781 110.777344 466.207031 93.316406 466.207031 C 78.59375 466.207031 64.957031 457.65625 57.597656 445.253906 C 51.824219 450.136719 41.605469 453.046875 35.644531 453.046875 C 29.679688 453.046875 4.074219 455.550781 0.902344 454.726562 "
     id="path5" />
  <path
     fill-rule="evenodd"
     fill="rgb(87.5%, 95.941162%, 98.454285%)"
     fill-opacity="1"
     d="M 481.425781 388.59375 C 486.066406 387.863281 490.457031 388.253906 494.363281 389.554688 C 501.875 371.328125 518.917969 356.757812 538.742188 353.652344 C 544.363281 352.773438 549.765625 352.886719 554.78125 353.859375 C 555.75 334.441406 571.675781 316.621094 591.183594 313.566406 C 594.257812 313.085938 597.246094 313 600.101562 313.269531 L 600.101562 418.101562 C 596.269531 420.234375 592.085938 421.734375 587.707031 422.421875 C 584.738281 422.886719 581.859375 422.945312 579.117188 422.648438 C 570.429688 437.050781 555.59375 447.972656 538.742188 450.609375 C 523.101562 453.058594 509.191406 447.824219 500.328125 437.714844 C 495.210938 442.796875 488.617188 446.410156 481.425781 447.535156 C 465.148438 450.085938 451.953125 438.957031 451.953125 422.679688 C 451.953125 406.402344 465.148438 391.140625 481.425781 388.59375 M 0.902344 426.527344 L 0.902344 330.433594 C 11.507812 335.527344 19.082031 346.574219 19.082031 358.515625 C 19.082031 358.855469 19.074219 359.195312 19.0625 359.53125 C 21.972656 359.203125 24.996094 359.199219 28.109375 359.5625 C 43.085938 361.300781 56.160156 370.980469 63.117188 383.90625 C 69.664062 377.683594 78.972656 374.394531 89.300781 375.59375 C 103.863281 377.28125 116.398438 387.414062 122.019531 400.53125 C 125.769531 399.394531 129.886719 399 134.207031 399.5 C 151.605469 401.519531 165.707031 417.253906 165.707031 434.652344 C 165.707031 441.847656 163.292969 448.195312 159.234375 453.027344 C 158.808594 453.039062 158.382812 453.046875 157.953125 453.046875 C 145.683594 453.046875 134.171875 447.109375 126.414062 437.953125 C 125.433594 444.960938 122.378906 451.1875 117.820312 456 C 113.613281 452.945312 110.054688 449.003906 107.449219 444.515625 C 102.125 447.03125 95.921875 448.109375 89.300781 447.339844 C 77.09375 445.921875 66.308594 438.574219 59.828125 428.503906 C 52.445312 437.035156 40.980469 441.734375 28.109375 440.242188 C 17.625 439.023438 8.078125 433.917969 0.902344 426.527344 "
     id="path6" />
  <path
     fill-rule="evenodd"
     fill="rgb(57.800293%, 86.091614%, 90.457153%)"
     fill-opacity="1"
     d="M 600.101562 408.261719 L 600.101562 600.054688 L 0.902344 600.054688 L 0.902344 413.234375 C 12.40625 413.769531 23.878906 415.09375 35.246094 417.207031 C 82.488281 425.996094 130.945312 425.996094 178.183594 417.207031 C 225.914062 408.328125 274.867188 408.328125 322.597656 417.207031 C 388.832031 429.53125 456.773438 429.53125 523.007812 417.207031 C 548.519531 412.460938 574.28125 409.480469 600.101562 408.261719 "
     id="path7" />
  <path
     fill-rule="evenodd"
     fill="rgb(89.500427%, 96.563721%, 98.188782%)"
     fill-opacity="1"
     d="M 600.101562 434.550781 L 600.101562 600.050781 L 0.902344 600.050781 L 0.902344 434.542969 C 60.875 413.085938 105.960938 397.554688 173.394531 417.433594 C 237.257812 436.257812 304.78125 436.257812 368.644531 417.433594 C 409.375 405.425781 452.433594 405.425781 493.164062 417.433594 C 528.09375 427.730469 564.199219 436.339844 600.101562 434.550781 "
     id="path8" />
  <path
     fill-rule="evenodd"
     fill="rgb(43.400574%, 81.251526%, 85.040283%)"
     fill-opacity="1"
     d="M 600.101562 434.550781 L 600.101562 600.050781 L 0.902344 600.050781 L 0.902344 434.542969 C 15.703125 430.496094 30.480469 426.355469 45.226562 422.117188 C 87.152344 410.078125 131.472656 410.078125 173.394531 422.117188 C 237.257812 440.460938 304.78125 440.460938 368.644531 422.117188 C 409.375 410.421875 452.433594 410.421875 493.164062 422.117188 C 528.09375 432.152344 564.199219 436.292969 600.101562 434.550781 "
     id="path9" />
  <path
     fill-rule="evenodd"
     fill="rgb(81.201172%, 93.82782%, 96.311951%)"
     fill-opacity="1"
     d="M 600.101562 477.925781 L 600.101562 600.050781 L 0.902344 600.050781 L 0.902344 447.011719 C 23.429688 449.246094 45.742188 451.742188 67.292969 459.867188 C 118.425781 479.152344 174.574219 477.769531 225.707031 458.488281 C 293.726562 432.835938 368.410156 432.835938 436.429688 458.488281 C 489.054688 478.332031 545.433594 486.972656 600.101562 477.925781 "
     id="path10" />
  <path
     fill-rule="evenodd"
     fill="rgb(30.056763%, 67.756653%, 73.161316%)"
     fill-opacity="1"
     d="M 600.101562 477.925781 L 600.101562 600.050781 L 0.902344 600.050781 L 0.902344 447.011719 C 23.429688 449.191406 45.742188 454.234375 67.292969 462.152344 C 118.425781 480.933594 174.574219 480.933594 225.707031 462.152344 C 293.726562 437.164062 368.410156 437.164062 436.429688 462.152344 C 489.054688 481.484375 545.433594 486.738281 600.101562 477.925781 "
     id="path11" />
  <path
     fill-rule="evenodd"
     fill="rgb(72.30072%, 90.829468%, 92.977905%)"
     fill-opacity="1"
     d="M 600.101562 500.21875 L 600.101562 600.050781 L 0.902344 600.050781 L 0.902344 500.476562 C 85.238281 482.527344 172.628906 481.238281 255.914062 505.328125 C 312.566406 521.714844 372.414062 521.714844 429.0625 505.328125 C 484.898438 489.179688 544.191406 489.460938 600.101562 500.21875 "
     id="path12" />
  <path
     fill-rule="evenodd"
     fill="rgb(22.306824%, 56.919861%, 64.932251%)"
     fill-opacity="1"
     d="M 600.101562 500.21875 L 600.101562 600.050781 L 0.902344 600.050781 L 0.902344 500.476562 C 85.238281 483.28125 172.628906 486.222656 255.914062 509.300781 C 312.566406 525 372.414062 525 429.0625 509.300781 C 484.898438 493.828125 543.269531 490.804688 600.101562 500.21875 "
     id="path13" />
  <path
     fill-rule="evenodd"
     fill="rgb(100%, 100%, 100%)"
     fill-opacity="1"
     d="M 315.1875 73.753906 L 353.40625 70.308594 C 353.464844 69.894531 353.527344 69.476562 353.601562 69.058594 C 355.777344 56.953125 364.546875 47.136719 373.195312 47.136719 C 376.960938 47.136719 380.078125 49 382.222656 52.101562 C 385.980469 48.960938 390.109375 47.136719 394.191406 47.136719 C 400.847656 47.136719 405.894531 51.984375 408.28125 59.484375 C 414.183594 47.308594 423.910156 38.847656 433.441406 38.847656 C 443.222656 38.847656 450.011719 47.757812 451.304688 60.453125 C 456.027344 56.675781 461.136719 54.507812 466.179688 54.507812 C 471.277344 54.507812 475.644531 56.71875 479.023438 60.5625 C 485.464844 52.351562 493.828125 47.136719 502.132812 47.136719 C 507.105469 47.136719 511.425781 49.007812 514.847656 52.269531 C 519.308594 49.042969 524.417969 47.140625 529.578125 47.140625 C 541.503906 47.140625 549.535156 57.304688 548.746094 70.5 L 584.832031 73.753906 Z M 315.1875 73.753906 "
     id="path14" />
  <path
     fill-rule="evenodd"
     fill="rgb(100%, 100%, 100%)"
     fill-opacity="1"
     d="M 121.019531 115.523438 C 127.835938 115.523438 132.203125 122.988281 131.871094 133 C 133.535156 132.058594 135.269531 131.535156 136.992188 131.535156 C 141.402344 131.535156 144.664062 134.953125 145.960938 140.113281 C 148.722656 135 152.910156 131.535156 157.007812 131.535156 C 161.449219 131.535156 164.535156 135.601562 165.167969 141.421875 C 165.574219 141.34375 165.980469 141.300781 166.390625 141.300781 C 169.886719 141.300781 172.332031 144.328125 172.789062 148.613281 L 192.96875 150.429688 L 50.03125 150.429688 L 69.742188 148.652344 C 71.699219 141.445312 78.015625 135.832031 84.46875 135.832031 C 85.003906 135.832031 85.523438 135.871094 86.023438 135.945312 C 89.542969 129.183594 95.324219 124.503906 101.050781 124.503906 C 103.222656 124.503906 105.160156 125.179688 106.792969 126.386719 C 110.476562 119.875 115.816406 115.523438 121.019531 115.523438 "
     id="path15" />
</svg>
